<?xml version="1.0" encoding="utf-8"?>
<!-- Generator: Adobe Illustrator 25.2.2, SVG Export Plug-In . SVG Version: 6.00 Build 0)  -->
<svg version="1.1" id="Layer_1" xmlns="http://www.w3.org/2000/svg" xmlns:xlink="http://www.w3.org/1999/xlink" x="0px" y="0px"
	 viewBox="0 0 1000 600" style="enable-background:new 0 0 1000 600;" xml:space="preserve">
<style type="text/css">
	.st0{fill:#4B4A49;}
	.st1{fill:#EC1654;}
	.st2{fill:#FFFFFF;}
</style>
<g>
	<g>
		<path class="st0" d="M67.9,396.06c4.58-4.85,11.48-7.32,20.49-7.32h12.58l4.85-23.06H83.27c-8.48,0-15.99,0.57-22.3,1.68
			c-6.21,1.09-11.63,3.16-16.11,6.12c-4.46,2.95-8.21,7.08-11.17,12.28c-3,5.26-5.4,12.13-7.13,20.42v0.01l-12.12,56.93h33.99
			l9.98-46.58C60.23,407.7,63.42,400.81,67.9,396.06z"/>
		<path class="st0" d="M107.78,435.65c0,8.59,2.74,15.15,8.39,20.07c5.62,4.91,13.26,7.39,22.69,7.39h48.19
			c6.33,0,11.58-1.49,15.58-4.44c3.96-2.92,6.76-8.03,8.31-15.2l16.49-77.8h-34l-13.97,65.55c-0.72,3.3-1.82,5.54-3.36,6.84
			c-1.57,1.34-3.95,1.99-7.27,1.99h-6.07c-6.46,0-11.1-1.06-14.18-3.23c-3.21-2.26-4.84-6.04-4.84-11.24c0-1.2,0.1-2.52,0.3-3.92
			c0.19-1.34,0.41-2.78,0.67-4.31l11-51.68h-34l-13.02,61.37C108.09,429.86,107.78,432.75,107.78,435.65z"/>
		<path class="st0" d="M333.2,437.74c2.22-5.68,4.05-12.35,5.42-19.82c0.62-2.99,1.02-5.89,1.21-8.64c0.18-2.77,0.28-5.51,0.28-8.15
			c0-5.25-0.68-10.11-2.01-14.44c-1.32-4.25-3.38-7.99-6.13-11.09c-2.74-3.09-6.33-5.53-10.7-7.27c-4.41-1.75-9.8-2.64-16.02-2.64
			h-26.21l6.83-32.26h-33.99l-23.46,110.7c-0.35,1.66-0.53,3.27-0.53,4.8c0,4.06,1.23,7.38,3.76,10.14
			c2.46,2.68,6.35,4.05,11.56,4.05h44.4c8.78,0,16.22-0.96,22.1-2.87c5.81-1.87,10.68-4.72,14.47-8.45
			C327.98,448.06,331.02,443.32,333.2,437.74z M304.52,409.85c-0.26,2.04-0.51,3.89-0.77,5.55c-0.67,3.2-1.48,6.2-2.44,8.99
			c-0.99,2.92-2.31,5.51-3.91,7.71c-1.65,2.27-3.77,4.12-6.31,5.49c-2.56,1.38-5.78,2.08-9.56,2.08h-6.83
			c-3.22,0-5.49-0.41-6.95-1.25c-1.18-0.67-2.58-2.13-2.58-5.24c0-1.26,0.2-2.85,0.6-4.86l0-0.01l8.23-39.19h18.34
			c4.89,0,8.28,1.61,10.08,4.78c1.65,2.88,2.49,6.27,2.49,10.07C304.92,405.77,304.78,407.75,304.52,409.85z"/>
		<polygon class="st0" points="436.69,365.69 396.56,434.86 382.34,365.69 349.57,365.69 374.87,465.01 352.53,495.56 387.7,495.56 
			471.99,365.69 		"/>
		<path class="st0" d="M507.88,365.69c-9.1,0-16.13,1.81-20.88,5.38c-4.73,3.55-8.11,9.94-10.03,19c-0.61,3.02-0.91,5.6-0.91,7.64
			c0,3.1,0.41,5.83,1.24,8.1c0.8,2.25,2.02,4.23,3.63,5.89c1.66,1.72,3.74,3.28,6.18,4.66c2.5,1.41,5.46,2.74,8.79,3.98l18.42,7.02
			c0.99,0.37,2.14,0.78,3.45,1.21c1.37,0.46,2.67,0.95,3.9,1.46c1.34,0.57,2.5,1.26,3.44,2.05c1.19,1,1.79,2.14,1.79,3.37
			c0,1.71-0.9,2.95-2.46,3.4c-1.01,0.29-1.92,0.44-2.7,0.44h-62.21l-14.51,23.82h86.2c4.54,0,8.62-0.37,12.11-1.11
			c3.36-0.71,6.29-1.95,8.69-3.71c2.39-1.75,4.41-4.13,6-7.07c1.62-3,2.94-6.88,3.92-11.53c0.61-3.05,0.91-5.62,0.91-7.64
			c0-3.56-0.53-6.61-1.58-9.06c-1.05-2.45-2.56-4.65-4.49-6.51c-1.97-1.91-4.39-3.6-7.21-5.04c-2.95-1.51-6.27-3.02-9.85-4.5
			l-21.79-8.52c-2.87-1.13-4.99-1.9-6.35-2.34c-2.05-0.65-3.17-2.16-3.17-4.24c0-1.09,0.59-2.02,1.62-2.53
			c0.65-0.33,1.41-0.56,2.33-0.72c0.86-0.14,1.67-0.21,2.45-0.21h54.99l4.83-22.68H507.88z"/>
		<path class="st0" d="M665.67,405.14c0.06,0.6,0.15,1.26,0.27,1.98l3.81,43.96c0.11,1.61,0.52,3.22,1.21,4.83
			c0.65,1.52,1.77,2.92,3.32,4.13c1.59,1.26,3.8,2.28,6.57,3.05c2.82,0.78,6.48,1.17,10.87,1.17c4.49,0,8.29-0.48,11.29-1.45
			c2.96-0.95,5.54-2.29,7.66-3.99c2.14-1.73,3.98-3.74,5.46-6c1.53-2.32,2.99-4.94,4.36-7.79l39.12-79.35h-33.31l-27.09,56.97
			c-0.25,0.63-0.64,1.38-1.13,2.16c-0.94,1.47-2.01,1.77-2.74,1.77c-1,0-2.18-0.61-2.49-2.33c-0.15-0.8-0.21-1.49-0.21-2.08
			l-4.55-48.42c-0.1-0.94-0.38-1.98-0.83-3.06c-0.39-0.92-1.21-1.85-2.43-2.76c-1.29-0.95-3.13-1.76-5.46-2.4
			c-2.4-0.66-5.58-0.99-9.45-0.99c-3.88,0-7.14,0.33-9.66,0.99c-2.48,0.65-4.54,1.49-6.11,2.47c-1.55,0.98-2.75,2.01-3.59,3.06
			c-0.87,1.1-1.53,2.17-1.98,3.17l-25.09,48.65c-0.25,0.5-0.57,1.12-0.97,1.84c-0.83,1.53-1.93,1.85-2.7,1.85
			c-0.46,0-1.99-0.16-2.55-2.2c-0.22-0.8-0.34-1.59-0.34-2.36l-2.77-56.34h-30.61l5.58,79.91c0.12,2.81,0.52,5.37,1.17,7.64
			c0.63,2.16,1.69,4.1,3.17,5.75c1.46,1.63,3.54,2.92,6.18,3.83c2.73,0.95,6.39,1.43,10.87,1.43c4.39,0,8.16-0.4,11.18-1.18
			c2.99-0.78,5.52-1.83,7.52-3.12c1.98-1.28,3.6-2.75,4.81-4.37c1.27-1.68,2.33-3.39,3.17-5.07l23.82-45.92
			c0.73-1.49,1.73-1.81,2.43-1.81C663.78,402.79,665.44,402.9,665.67,405.14z"/>
		<path class="st0" d="M751.3,427.45c-0.35,1.9-0.67,4.13-0.92,6.57c-0.24,2.39-0.37,4.48-0.37,6.19c0,7.06,1.73,12.73,5.14,16.84
			c3.34,4.03,8.68,6.08,15.87,6.08h58.44c7.16,0,12.65-1.68,16.31-5c3.71-3.36,6.26-8.28,7.59-14.62l9.67-45.54
			c0.24-1.2,0.42-2.46,0.54-3.8c0.12-1.34,0.18-2.56,0.18-3.66c0-7.38-2.27-13.43-6.76-17.97c-4.48-4.54-11.64-6.84-21.28-6.84
			H772.1l-4.83,22.68h50.43c9.13,0,11.05,4.87,11.05,8.96c0,1.12-0.07,2.03-0.22,2.77l-0.63,3.16h-47.19
			c-5.03,0-9.31,0.43-12.72,1.28c-3.28,0.82-6.01,2.14-8.09,3.93c-2.08,1.8-3.79,4.26-5.08,7.3
			C753.48,418.94,752.3,422.87,751.3,427.45z M785.25,430.98c0.6-2.75,1.95-4.7,4.01-5.81c1.87-1.01,3.91-1.52,6.05-1.52h28.35
			l-2.17,9.13c-0.71,3.25-1.81,5.49-3.35,6.8c-1.57,1.34-3.95,1.99-7.27,1.99h-19.17c-2.28,0-4.04-0.78-5.22-2.32
			c-1.09-1.4-1.65-3-1.65-4.74C784.84,433.52,784.98,432.33,785.25,430.98z"/>
		<path class="st0" d="M929.83,463.12c8.78,0,16.21-0.96,22.1-2.87c5.8-1.87,10.67-4.71,14.47-8.45c3.81-3.74,6.88-8.48,9.13-14.08
			c2.29-5.68,4.14-12.35,5.51-19.81c1.11-5.94,1.68-11.58,1.68-16.79c0-5.26-0.68-10.12-2.01-14.44c-1.32-4.24-3.44-7.96-6.3-11.07
			c-2.86-3.1-6.53-5.55-10.91-7.29c-4.41-1.75-9.8-2.64-16.02-2.64h-40.6c-7.15,0-12.61,1.68-16.21,4.99
			c-3.66,3.37-6.18,8.29-7.5,14.63l-23.32,110.06h33.81l6.82-32.25H929.83z M914.07,399.84c0.84-4.17,2.13-6.94,3.94-8.46
			c1.83-1.52,4.76-2.26,8.97-2.26h6.83c5.32,0,9,1.4,10.95,4.17c1.83,2.6,2.75,5.87,2.75,9.72c0,1.8-0.13,3.96-0.39,6.6
			c-0.26,2.59-0.59,4.93-0.97,6.97c-0.52,2.48-1.27,5.08-2.25,7.74c-1,2.73-2.35,5.23-4.02,7.42c-1.7,2.24-3.8,4.13-6.22,5.61
			c-2.51,1.54-5.59,2.31-9.16,2.31h-19.01L914.07,399.84z"/>
	</g>
	<g>
		<g>
			<path class="st1" d="M558.78,139.09c2.92,0,4.27-2.15,3.01-4.79l-12.07-25.09c-1.27-2.63-4.69-4.79-7.61-4.79h-85.81
				c-2.92,0-6.35,2.15-7.62,4.78l-12.09,25.09c-1.27,2.63,0.08,4.78,3.01,4.78H558.78z"/>
		</g>
		<g>
			<path class="st1" d="M616.65,139.09c2.92,0,3.75-1.81,1.84-4.02l-23.04-26.62c-1.91-2.21-5.86-4.02-8.79-4.02h-22.44
				c-2.92,0-4.27,2.15-3,4.78l12.1,25.09c1.27,2.63,4.7,4.78,7.62,4.78H616.65z"/>
		</g>
		<g>
			<path class="st1" d="M435.93,109.22c1.27-2.63-0.08-4.78-3-4.78h-22.46c-2.92,0-6.87,1.81-8.79,4.02l-23.04,26.62
				c-1.91,2.21-1.09,4.02,1.84,4.02h35.73c2.92,0,6.35-2.15,7.62-4.78L435.93,109.22z"/>
		</g>
		<g>
			<path class="st1" d="M380.29,148.83c-2.92,0-3.79,1.85-1.94,4.1l98.16,119.34c1.86,2.26,2.38,1.93,1.16-0.73L423.7,153.66
				c-1.22-2.66-4.6-4.83-7.52-4.83H380.29z"/>
		</g>
		<g>
			<path class="st1" d="M580.98,148.83c-2.92,0-6.31,2.17-7.52,4.83l-54,117.89c-1.22,2.66-0.69,2.98,1.16,0.73l98.18-119.34
				c1.86-2.26,0.98-4.1-1.94-4.1H580.98z"/>
		</g>
		<g>
			<path class="st1" d="M501.26,188.41c-2.81-0.81-2.82-2.18-0.04-3.05l48.93-15.31c2.79-0.87,6.06-3.76,7.28-6.41l4.57-9.97
				c1.22-2.66-0.18-4.83-3.1-4.83H439.51c-2.92,0-4.32,2.17-3.1,4.83l19.99,43.66c1.22,2.66,4.54,5.37,7.38,6.04l47.33,11.06
				c2.84,0.66,3.07,2.34,0.5,3.73l-31.96,17.21c-2.57,1.38-3.68,4.69-2.46,7.35l19.8,43.24c1.22,2.66,3.21,2.66,4.42,0l37.24-81.31
				c1.22-2.66-0.09-5.49-2.89-6.3L501.26,188.41z"/>
		</g>
	</g>
</g>
</svg>
