<?xml version="1.0" encoding="utf-8"?>
<!-- Generator: Adobe Illustrator 25.2.2, SVG Export Plug-In . SVG Version: 6.00 Build 0)  -->
<svg version="1.1" id="Layer_1" xmlns="http://www.w3.org/2000/svg" xmlns:xlink="http://www.w3.org/1999/xlink" x="0px" y="0px"
	 viewBox="0 0 1000 1000" style="enable-background:new 0 0 1000 1000;" xml:space="preserve">
<style type="text/css">
	.st0{fill:#4B4A49;}
	.st1{fill:#EC1654;}
	.st2{fill:#FFFFFF;}
</style>
<g>
	<g>
		<path class="st0" d="M108.71,786.81c4.02-4.26,10.1-6.42,18.09-6.42h12.07l4.74-22.53h-21.47c-7.74,0-14.62,0.52-20.43,1.54
			c-5.76,1.01-10.79,2.93-14.95,5.69c-4.15,2.75-7.65,6.6-10.42,11.44c-2.77,4.86-4.98,11.19-6.57,18.8v0l-11.23,52.74h32.51
			l9.22-43C101.89,797.17,104.73,791.02,108.71,786.81z"/>
		<path class="st0" d="M143.68,822.31c0,7.94,2.66,14.28,7.89,18.85c5.25,4.59,12.37,6.92,21.16,6.92h43.86
			c5.93,0,10.86-1.41,14.64-4.19c3.76-2.77,6.41-7.58,7.86-14.29l15.2-71.73h-32.51l-12.84,60.26c-0.62,2.83-1.53,4.72-2.81,5.8
			c-1.28,1.09-3.29,1.63-6.12,1.63h-5.53c-5.64,0-9.83-0.94-12.47-2.8c-2.7-1.9-4.07-5.13-4.07-9.6c0-1.07,0.09-2.23,0.27-3.46
			c0.17-1.22,0.37-2.52,0.61-3.9l10.19-47.93H156.5l-11.98,56.47C143.96,816.92,143.68,819.61,143.68,822.31z"/>
		<path class="st0" d="M252.98,834.4c0,3.85,1.22,7.13,3.62,9.75c2.39,2.61,6.12,3.93,11.09,3.93h40.41
			c8.08,0,14.93-0.89,20.35-2.64c5.39-1.74,9.93-4.39,13.47-7.88c3.55-3.49,6.37-7.89,8.4-13.07c2.04-5.23,3.72-11.34,4.97-18.18
			c0.57-2.76,0.94-5.44,1.11-7.95c0.17-2.54,0.25-5.06,0.25-7.47c0-4.87-0.63-9.36-1.87-13.36c-1.23-3.97-3.16-7.47-5.73-10.38
			c-2.57-2.9-5.94-5.2-10.03-6.82c-4.11-1.63-9.12-2.46-14.86-2.46h-22.91l0.17-0.79l6.05-28.56h-32.51l-21.47,101.36
			C253.15,831.44,252.98,832.96,252.98,834.4z M288.98,815.79L288.98,815.79l7.36-35.06h16.07c4.14,0,7,1.33,8.5,3.96
			c1.43,2.5,2.16,5.46,2.16,8.78c0,1.6-0.12,3.36-0.35,5.26c-0.23,1.85-0.46,3.53-0.69,5.03c-0.59,2.83-1.32,5.53-2.19,8.05
			c-0.89,2.59-2.05,4.89-3.46,6.82c-1.43,1.97-3.28,3.57-5.48,4.76c-2.22,1.2-5.02,1.81-8.34,1.81h-6.22
			c-2.79,0-4.73-0.34-5.94-1.04c-1.3-0.75-1.97-2.13-1.97-4.1C288.45,818.99,288.63,817.56,288.98,815.79z"/>
		<polygon class="st0" points="443.32,757.87 407.6,819.45 394.94,757.87 363.5,757.87 386.68,848.86 365.67,877.6 399.6,877.6 
			477.32,757.87 		"/>
		<path class="st0" d="M508.56,757.87c-8.45,0-15,1.7-19.47,5.05c-4.46,3.34-7.63,9.31-9.42,17.74c-0.56,2.82-0.85,5.22-0.85,7.12
			c0,2.91,0.39,5.47,1.17,7.64c0.76,2.14,1.93,4.04,3.48,5.64c1.56,1.62,3.52,3.09,5.81,4.37c2.31,1.3,5.04,2.53,8.11,3.67
			l16.76,6.39c0.91,0.34,1.96,0.72,3.17,1.11c1.22,0.41,2.39,0.85,3.5,1.31c1.15,0.49,2.14,1.08,2.93,1.75
			c0.89,0.76,1.35,1.59,1.35,2.48c0,1.21-0.6,2.04-1.68,2.35c-0.85,0.25-1.61,0.37-2.25,0.37h-57.05l-14.14,23.21h79.82
			c4.2,0,7.96-0.34,11.17-1.02c3.18-0.67,5.94-1.85,8.21-3.52c2.27-1.65,4.18-3.91,5.68-6.69c1.52-2.8,2.74-6.4,3.65-10.7
			c0.56-2.82,0.84-5.22,0.84-7.11c0-3.35-0.5-6.23-1.5-8.55c-1-2.33-2.43-4.41-4.26-6.18c-1.84-1.78-4.11-3.37-6.75-4.72
			c-2.71-1.38-5.74-2.77-9.02-4.12l-19.85-7.77c-2.57-1.01-4.53-1.73-5.83-2.14c-1.54-0.49-2.36-1.57-2.36-3.12
			c0-0.5,0.18-1.18,1.05-1.62c0.53-0.26,1.17-0.45,1.91-0.58c0.74-0.12,1.43-0.18,2.1-0.18h50.67l4.72-22.18H508.56z"/>
		<path class="st0" d="M698.72,838.35c1.43-2.17,2.78-4.59,4.01-7.17l36.15-73.31h-32.04l-24.86,52.29
			c-0.24,0.59-0.58,1.24-0.99,1.89c-0.53,0.83-1.15,1.25-1.84,1.25c-0.37,0-1.26-0.15-1.5-1.49c-0.12-0.65-0.19-1.24-0.19-1.76
			l-4.14-44.14c-0.11-0.95-0.38-1.97-0.81-3c-0.41-0.97-1.24-1.92-2.46-2.84c-1.26-0.92-3.02-1.7-5.22-2.31
			c-2.24-0.61-5.2-0.92-8.81-0.92c-3.61,0-6.63,0.31-8.98,0.93c-2.34,0.61-4.29,1.4-5.78,2.33c-1.48,0.94-2.64,1.93-3.46,2.96
			c-0.82,1.04-1.46,2.07-1.9,3.06l-22.8,44.23c-0.24,0.47-0.52,1.02-0.87,1.66c-0.58,1.06-1.29,1.29-1.78,1.29
			c-0.44,0-1.23-0.19-1.58-1.43c-0.19-0.67-0.28-1.34-0.28-1.97l-2.56-52.03H576.6l5.13,73.55c0.11,2.6,0.48,4.99,1.1,7.12
			c0.6,2.08,1.63,3.94,3.05,5.53c1.42,1.58,3.42,2.83,5.94,3.7c2.57,0.89,5.99,1.34,10.15,1.34c4.08,0,7.56-0.37,10.37-1.1
			c2.8-0.73,5.18-1.72,7.07-2.94c1.88-1.22,3.42-2.62,4.58-4.16c1.19-1.58,2.18-3.17,2.96-4.74l20.72-39.89
			c0.34-0.68,0.66-1.31,0.95-1.89c0.49-1.01,1.1-1.22,1.53-1.22c0.33,0,1.12,0.14,1.25,1.45c0.06,0.56,0.14,1.18,0.25,1.86
			l3.46,39.94c0.11,1.54,0.5,3.1,1.16,4.63c0.65,1.51,1.75,2.88,3.26,4.06c1.53,1.2,3.63,2.18,6.25,2.91
			c2.63,0.73,6.02,1.1,10.1,1.1c4.17,0,7.7-0.45,10.5-1.35c2.79-0.89,5.22-2.16,7.22-3.78C695.6,842.37,697.32,840.48,698.72,838.35
			z"/>
		<path class="st0" d="M729.34,814.67c-0.33,1.78-0.61,3.76-0.85,6.06c-0.22,2.17-0.34,4.1-0.34,5.72c0,6.61,1.63,11.93,4.85,15.81
			c3.19,3.85,8.25,5.81,15.04,5.81h53.18c6.72,0,11.89-1.6,15.36-4.75c3.5-3.17,5.91-7.78,7.14-13.72l8.81-41.44
			c0.22-1.09,0.39-2.28,0.5-3.55c0.11-1.25,0.17-2.39,0.17-3.39c0-6.92-2.14-12.61-6.37-16.89c-4.23-4.28-10.93-6.45-19.92-6.45
			H748.4l-4.73,22.18h46.85c7.67,0,9.29,4.02,9.29,7.39c0,0.95-0.06,1.75-0.19,2.37l-0.45,2.25h-42.32c-4.64,0-8.59,0.4-11.76,1.19
			c-3.11,0.78-5.69,2.04-7.67,3.75c-1.98,1.71-3.61,4.04-4.83,6.93C731.34,806.84,730.25,810.46,729.34,814.67z M761.73,818.21
			c0.5-2.27,1.6-3.86,3.27-4.76c1.59-0.86,3.32-1.29,5.14-1.29h24.82l-1.75,7.36c-0.61,2.81-1.53,4.7-2.8,5.79
			c-1.29,1.09-3.29,1.62-6.12,1.62h-17.44c-1.82,0-3.22-0.61-4.14-1.81c-0.89-1.14-1.34-2.44-1.34-3.85
			C761.38,820.43,761.5,819.4,761.73,818.21z"/>
		<path class="st0" d="M892.57,848.07c8.08,0,14.93-0.89,20.35-2.64c5.39-1.74,9.93-4.39,13.47-7.87c3.54-3.48,6.39-7.88,8.49-13.08
			c2.1-5.23,3.81-11.34,5.06-18.18c1.02-5.44,1.54-10.63,1.54-15.42c0-4.87-0.63-9.36-1.87-13.36c-1.23-3.98-3.22-7.47-5.9-10.37
			s-6.11-5.2-10.21-6.83c-4.11-1.63-9.11-2.46-14.86-2.46h-36.95c-6.71,0-11.85,1.6-15.28,4.75c-3.45,3.17-5.82,7.79-7.06,13.72
			l-21.41,101.09h32.34l6.21-29.36H892.57z M878.98,789.89c0.72-3.62,1.81-6,3.33-7.28c1.52-1.26,4.03-1.88,7.67-1.88h6.22
			c4.58,0,7.72,1.17,9.34,3.47c1.57,2.23,2.36,5.06,2.36,8.4c0,1.6-0.11,3.54-0.35,5.94c-0.23,2.31-0.53,4.42-0.87,6.27
			c-0.47,2.24-1.15,4.56-2.02,6.93c-0.88,2.41-2.07,4.61-3.54,6.56c-1.5,1.97-3.33,3.62-5.45,4.91c-2.17,1.33-4.83,2-7.93,2h-16.35
			L878.98,789.89z"/>
	</g>
	<g>
		<g>
			<path class="st1" d="M669.16,219.77c8.21,0,12.01-6.05,8.45-13.44l-33.93-70.48c-3.56-7.39-13.19-13.44-21.39-13.44H381.21
				c-8.21,0-17.84,6.05-21.4,13.44l-33.96,70.49c-3.56,7.39,0.24,13.44,8.44,13.44H669.16z"/>
		</g>
		<g>
			<path class="st1" d="M831.74,219.77c8.21,0,10.53-5.08,5.16-11.28l-64.72-74.8c-5.37-6.21-16.48-11.28-24.68-11.28h-63.05
				c-8.21,0-12,6.05-8.44,13.44l34,70.49c3.57,7.39,13.2,13.44,21.4,13.44H831.74z"/>
		</g>
		<g>
			<path class="st1" d="M324,135.84c3.57-7.39-0.23-13.44-8.44-13.44h-63.1c-8.21,0-19.31,5.08-24.68,11.28l-64.73,74.8
				c-5.37,6.21-3.05,11.28,5.16,11.28H268.6c8.21,0,17.84-6.05,21.4-13.44L324,135.84z"/>
		</g>
		<g>
			<path class="st1" d="M167.67,247.13c-8.21,0-10.66,5.19-5.44,11.52L438,593.96c5.21,6.34,6.68,5.42,3.27-2.04L289.63,260.7
				c-3.42-7.46-12.93-13.57-21.13-13.57H167.67z"/>
		</g>
		<g>
			<path class="st1" d="M731.52,247.13c-8.21,0-17.72,6.1-21.14,13.57L558.66,591.92c-3.42,7.46-1.95,8.38,3.27,2.04l275.84-335.31
				c5.21-6.34,2.77-11.52-5.44-11.52H731.52z"/>
		</g>
		<g>
			<path class="st1" d="M507.54,358.31c-7.89-2.27-7.93-6.13-0.1-8.58l137.47-43.01c7.83-2.45,17.04-10.56,20.45-18.02l12.83-28
				c3.42-7.46-0.5-13.57-8.71-13.57H334.05c-8.21,0-12.13,6.1-8.71,13.57l56.18,122.66c3.42,7.46,12.75,15.09,20.74,16.96
				l132.97,31.08c7.99,1.87,8.62,6.58,1.39,10.47l-89.79,48.34c-7.23,3.89-10.34,13.18-6.92,20.64l55.63,121.47
				c3.42,7.46,9.01,7.46,12.43,0l104.64-228.45c3.42-7.46-0.24-15.42-8.13-17.69L507.54,358.31z"/>
		</g>
	</g>
</g>
</svg>
