<?xml version="1.0" encoding="utf-8"?>
<!-- Generator: Adobe Illustrator 25.2.2, SVG Export Plug-In . SVG Version: 6.00 Build 0)  -->
<svg version="1.1" id="Layer_1" xmlns="http://www.w3.org/2000/svg" xmlns:xlink="http://www.w3.org/1999/xlink" x="0px" y="0px"
	 viewBox="0 0 1000 1000" style="enable-background:new 0 0 1000 1000;" xml:space="preserve">
<style type="text/css">
	.st0{fill:#4B4A49;}
	.st1{fill:#EC1654;}
	.st2{fill:#FFFFFF;}
</style>
<g>
	<g>
		<path class="st2" d="M711.61,339.17c10.27,0,15.02-7.57,10.57-16.82l-42.44-88.16c-4.45-9.25-16.49-16.82-26.76-16.82H351.4
			c-10.27,0-22.31,7.57-26.77,16.81l-42.48,88.17c-4.46,9.25,0.3,16.82,10.56,16.82H711.61z"/>
	</g>
	<g>
		<path class="st2" d="M914.98,339.17c10.27,0,13.17-6.35,6.45-14.11l-80.96-93.57c-6.72-7.76-20.61-14.11-30.88-14.11h-78.87
			c-10.27,0-15.02,7.57-10.56,16.81l42.53,88.18c4.46,9.25,16.51,16.81,26.77,16.81H914.98z"/>
	</g>
	<g>
		<path class="st2" d="M279.84,234.18c4.46-9.25-0.29-16.81-10.56-16.81h-78.93c-10.27,0-24.16,6.35-30.88,14.11l-80.97,93.57
			c-6.72,7.76-3.81,14.11,6.45,14.11h125.57c10.27,0,22.31-7.57,26.77-16.81L279.84,234.18z"/>
	</g>
	<g>
		<path class="st2" d="M84.28,373.4c-10.27,0-13.33,6.49-6.81,14.42l344.97,419.44c6.52,7.93,8.36,6.78,4.09-2.56L236.85,390.37
			c-4.27-9.33-16.17-16.97-26.43-16.97H84.28z"/>
	</g>
	<g>
		<path class="st2" d="M789.62,373.4c-10.27,0-22.16,7.64-26.44,16.97L573.38,804.7c-4.28,9.33-2.44,10.48,4.08,2.56l345.06-419.44
			c6.52-7.93,3.46-14.41-6.81-14.41H789.62z"/>
	</g>
	<g>
		<path class="st2" d="M509.44,512.48c-9.87-2.84-9.92-7.67-0.12-10.73l171.96-53.81c9.8-3.07,21.31-13.21,25.59-22.54l16.05-35.03
			c4.28-9.33-0.63-16.97-10.89-16.97h-419.6c-10.27,0-15.17,7.64-10.89,16.97l70.27,153.44c4.27,9.33,15.95,18.88,25.95,21.22
			l166.33,38.88c10,2.34,10.78,8.23,1.74,13.1l-112.32,60.47c-9.04,4.87-12.94,16.48-8.66,25.82l69.59,151.95
			c4.27,9.33,11.27,9.33,15.54,0l130.9-285.77c4.28-9.33-0.3-19.29-10.17-22.13L509.44,512.48z"/>
	</g>
</g>
</svg>
